# xmcd
#
# Track frame offsets:
#	150
#	37147
#	58867
#	82190
#	99732
#	113255
#	130960
#	150630
#	171137
#	187545
#	207152
#	232822
#	248577
#	279725
#	299277
#
# Disc length: 4185 seconds
#
# Revision: 0
# Processed by: cddbd v1.4PL0 Copyright (c) Steve Scherf et al.
# Submitted via: dBpowerAMP V4.0
#
DISCID=ca10570f
DTITLE=Various Artist - Dylan for Dollars
DYEAR=1900
DGENRE=
TTITLE0=Tim Krekel and The Groovebillys - Like A Rolling Stone
TTITLE1=El Roostars - Baby Let Me Follow You Down
TTITLE2=Soul Inc. (With Cosmo) - Knocking on Heaven's Door
TTITLE3=Heidi Howe (With The Lollygaggers) - Buckets of Rain
TTITLE4=Rick Harper - Forever Young
TTITLE5=Stachel's Pawn Shop - Mozambique
TTITLE6=Hog Operation - All Along the Watchtower
TTITLE7=Tanita Gaines and The Accused - Threw It All Away
TTITLE8=Bryan Hurst and The Lollygaggers - Tonight I'll Be Staying Here With You
TTITLE9=Mudcats - Dirt Road Blues
TTITLE10=Juggernaut Jug Band - Desolation Row
TTITLE11=Butch Rice - She Belongs to Me
TTITLE12=Edenstreet - Gotta Serve Somebody
TTITLE13=Jakeleg - Union Sundown
TTITLE14=Bodeco - Maggie's Farm
EXTD=This CD is a tribute to Bob Dylan by artists in and around Louisville, KY.
EXTT0=
EXTT1=
EXTT2=
EXTT3=
EXTT4=
EXTT5=
EXTT6=
EXTT7=
EXTT8=
EXTT9=
EXTT10=
EXTT11=
EXTT12=
EXTT13=
EXTT14=
PLAYORDER=
